<?xml version="1.0" encoding="UTF-8"?>
<svg xmlns="http://www.w3.org/2000/svg" xmlns:xlink="http://www.w3.org/1999/xlink" width="854" height="480" viewBox="0 0 854 480">
<defs>
<g>
<g id="glyph-0-0">
<path d="M 3.5625 -4.722656 C 3.484375 -4.589844 3.390625 -4.421875 3.28125 -4.222656 C 3.171875 -4.023438 3.054688 -3.796875 2.933594 -3.546875 C 2.8125 -3.296875 2.6875 -3.03125 2.558594 -2.742188 C 2.433594 -2.457031 2.316406 -2.160156 2.203125 -1.855469 C 2.09375 -1.550781 1.996094 -1.238281 1.914062 -0.925781 C 1.828125 -0.613281 1.769531 -0.304688 1.730469 0 L 1.109375 0 C 1.152344 -0.300781 1.21875 -0.609375 1.304688 -0.921875 C 1.394531 -1.234375 1.496094 -1.542969 1.605469 -1.847656 C 1.71875 -2.148438 1.835938 -2.4375 1.960938 -2.71875 C 2.085938 -3 2.207031 -3.257812 2.324219 -3.492188 C 2.441406 -3.726562 2.550781 -3.933594 2.648438 -4.113281 C 2.746094 -4.292969 2.824219 -4.433594 2.882812 -4.535156 L 0.34375 -4.535156 L 0.34375 -5.058594 L 3.5625 -5.058594 Z "/>
</g>
<g id="glyph-0-1">
</g>
<g id="glyph-0-2">
<path d="M 4.132812 -2.625 L 0.816406 -2.625 L 0.816406 -3.089844 L 4.132812 -3.089844 L 4.132812 -2.625 M 4.132812 -1.121094 L 0.816406 -1.121094 L 0.816406 -1.585938 L 4.132812 -1.585938 Z "/>
</g>
<g id="glyph-0-3">
<path d="M 3.605469 -1.605469 C 3.605469 -1.359375 3.5625 -1.132812 3.484375 -0.925781 C 3.40625 -0.71875 3.292969 -0.539062 3.152344 -0.386719 C 3.011719 -0.238281 2.84375 -0.121094 2.648438 -0.0351562 C 2.453125 0.046875 2.242188 0.0898438 2.015625 0.0898438 C 1.761719 0.0898438 1.53125 0.0351562 1.332031 -0.0703125 C 1.128906 -0.175781 0.960938 -0.328125 0.820312 -0.527344 C 0.679688 -0.726562 0.574219 -0.96875 0.5 -1.253906 C 0.429688 -1.542969 0.390625 -1.867188 0.390625 -2.226562 C 0.390625 -2.664062 0.441406 -3.0625 0.539062 -3.421875 C 0.636719 -3.78125 0.773438 -4.089844 0.953125 -4.34375 C 1.132812 -4.597656 1.351562 -4.796875 1.605469 -4.933594 C 1.859375 -5.074219 2.140625 -5.140625 2.453125 -5.140625 C 2.800781 -5.140625 3.082031 -5.09375 3.292969 -4.996094 L 3.292969 -4.449219 C 3.03125 -4.585938 2.757812 -4.652344 2.46875 -4.652344 C 2.242188 -4.652344 2.039062 -4.601562 1.859375 -4.5 C 1.675781 -4.398438 1.523438 -4.257812 1.394531 -4.070312 C 1.265625 -3.886719 1.164062 -3.664062 1.09375 -3.402344 C 1.027344 -3.140625 0.992188 -2.851562 0.992188 -2.53125 L 1.003906 -2.53125 C 1.238281 -2.953125 1.621094 -3.164062 2.160156 -3.164062 C 2.378906 -3.164062 2.578125 -3.125 2.757812 -3.050781 C 2.933594 -2.976562 3.085938 -2.867188 3.210938 -2.730469 C 3.335938 -2.59375 3.433594 -2.429688 3.503906 -2.238281 C 3.570312 -2.050781 3.605469 -1.835938 3.605469 -1.605469 M 3.011719 -1.53125 C 3.011719 -1.707031 2.988281 -1.867188 2.945312 -2.007812 C 2.898438 -2.148438 2.835938 -2.269531 2.753906 -2.367188 C 2.667969 -2.464844 2.566406 -2.539062 2.445312 -2.59375 C 2.320312 -2.648438 2.183594 -2.671875 2.027344 -2.671875 C 1.882812 -2.671875 1.75 -2.644531 1.628906 -2.59375 C 1.507812 -2.539062 1.402344 -2.464844 1.3125 -2.371094 C 1.222656 -2.277344 1.152344 -2.171875 1.101562 -2.046875 C 1.050781 -1.921875 1.027344 -1.792969 1.027344 -1.652344 C 1.027344 -1.480469 1.050781 -1.316406 1.101562 -1.164062 C 1.148438 -1.015625 1.21875 -0.882812 1.308594 -0.769531 C 1.398438 -0.65625 1.503906 -0.566406 1.628906 -0.503906 C 1.75 -0.4375 1.886719 -0.40625 2.039062 -0.40625 C 2.183594 -0.40625 2.316406 -0.433594 2.4375 -0.488281 C 2.558594 -0.542969 2.660156 -0.621094 2.742188 -0.71875 C 2.828125 -0.816406 2.894531 -0.9375 2.941406 -1.074219 C 2.988281 -1.210938 3.011719 -1.363281 3.011719 -1.53125 Z "/>
</g>
<g id="glyph-0-4">
<path d="M 4.132812 -1.871094 L 2.707031 -1.871094 L 2.707031 -0.449219 L 2.238281 -0.449219 L 2.238281 -1.871094 L 0.816406 -1.871094 L 0.816406 -2.339844 L 2.238281 -2.339844 L 2.238281 -3.761719 L 2.707031 -3.761719 L 2.707031 -2.339844 L 4.132812 -2.339844 Z "/>
</g>
<g id="glyph-0-5">
<path d="M 2.554688 0 L 1.976562 0 L 1.976562 -4.371094 C 1.929688 -4.324219 1.863281 -4.273438 1.777344 -4.214844 C 1.695312 -4.160156 1.597656 -4.101562 1.488281 -4.046875 C 1.382812 -3.988281 1.269531 -3.9375 1.152344 -3.886719 C 1.03125 -3.835938 0.917969 -3.796875 0.804688 -3.769531 L 0.804688 -4.355469 C 0.929688 -4.390625 1.066406 -4.4375 1.207031 -4.5 C 1.351562 -4.558594 1.488281 -4.625 1.628906 -4.699219 C 1.765625 -4.773438 1.894531 -4.851562 2.015625 -4.933594 C 2.140625 -5.011719 2.246094 -5.09375 2.335938 -5.171875 L 2.554688 -5.171875 Z "/>
</g>
</g>
</defs>
<g fill="rgb(100%, 100%, 0%)" fill-opacity="1">
<use xlink:href="#glyph-0-0" x="30" y="27.793945"/>
<use xlink:href="#glyph-0-1" x="34" y="27.793945"/>
<use xlink:href="#glyph-0-2" x="36" y="27.793945"/>
<use xlink:href="#glyph-0-1" x="41" y="27.793945"/>
<use xlink:href="#glyph-0-3" x="43" y="27.793945"/>
<use xlink:href="#glyph-0-1" x="47" y="27.793945"/>
<use xlink:href="#glyph-0-4" x="49" y="27.793945"/>
<use xlink:href="#glyph-0-1" x="54" y="27.793945"/>
<use xlink:href="#glyph-0-5" x="56" y="27.793945"/>
</g>
</svg>
