<?xml version="1.0" encoding="UTF-8"?>
<svg xmlns="http://www.w3.org/2000/svg" xmlns:xlink="http://www.w3.org/1999/xlink" width="854" height="480" viewBox="0 0 854 480">
<defs>
<g>
<g id="glyph-0-0">
<path d="M 2.34375 -0.128906 C 2.128906 0 1.878906 0.0664062 1.585938 0.0664062 C 1.1875 0.0664062 0.867188 -0.0625 0.625 -0.320312 C 0.382812 -0.578125 0.261719 -0.914062 0.261719 -1.324219 C 0.261719 -1.78125 0.390625 -2.148438 0.652344 -2.425781 C 0.917969 -2.703125 1.265625 -2.84375 1.703125 -2.84375 C 1.949219 -2.84375 2.164062 -2.796875 2.347656 -2.707031 L 2.347656 -2.25 C 2.144531 -2.394531 1.921875 -2.46875 1.6875 -2.46875 C 1.402344 -2.46875 1.171875 -2.367188 0.988281 -2.164062 C 0.808594 -1.960938 0.714844 -1.691406 0.714844 -1.363281 C 0.714844 -1.035156 0.800781 -0.78125 0.972656 -0.589844 C 1.144531 -0.402344 1.371094 -0.308594 1.660156 -0.308594 C 1.902344 -0.308594 2.128906 -0.390625 2.34375 -0.550781 Z "/>
</g>
<g id="glyph-0-1">
<path d="M 2.304688 0.804688 L 0 0.804688 L 0 0.484375 L 2.304688 0.484375 Z "/>
</g>
<g id="glyph-0-2">
<path d="M 2.765625 -1.960938 C 2.765625 -1.636719 2.738281 -1.347656 2.679688 -1.097656 C 2.621094 -0.84375 2.535156 -0.632812 2.425781 -0.460938 C 2.3125 -0.289062 2.175781 -0.15625 2.015625 -0.0664062 C 1.851562 0.0234375 1.667969 0.0664062 1.460938 0.0664062 C 1.265625 0.0664062 1.09375 0.0234375 0.941406 -0.0625 C 0.789062 -0.148438 0.660156 -0.273438 0.554688 -0.4375 C 0.449219 -0.601562 0.367188 -0.804688 0.316406 -1.042969 C 0.261719 -1.28125 0.234375 -1.558594 0.234375 -1.867188 C 0.234375 -2.207031 0.261719 -2.507812 0.320312 -2.765625 C 0.375 -3.027344 0.460938 -3.246094 0.570312 -3.421875 C 0.679688 -3.597656 0.816406 -3.730469 0.980469 -3.820312 C 1.144531 -3.910156 1.332031 -3.957031 1.542969 -3.957031 C 2.359375 -3.957031 2.765625 -3.289062 2.765625 -1.960938 M 2.3125 -1.917969 C 2.3125 -3.023438 2.046875 -3.578125 1.523438 -3.578125 C 0.964844 -3.578125 0.6875 -3.015625 0.6875 -1.886719 C 0.6875 -0.835938 0.960938 -0.3125 1.503906 -0.3125 C 2.042969 -0.3125 2.3125 -0.847656 2.3125 -1.917969 Z "/>
</g>
<g id="glyph-0-3">
</g>
<g id="glyph-0-4">
<path d="M 3.179688 -2.019531 L 0.628906 -2.019531 L 0.628906 -2.375 L 3.179688 -2.375 L 3.179688 -2.019531 M 3.179688 -0.863281 L 0.628906 -0.863281 L 0.628906 -1.222656 L 3.179688 -1.222656 Z "/>
</g>
<g id="glyph-0-5">
<path d="M 1.964844 0 L 1.519531 0 L 1.519531 -3.359375 C 1.484375 -3.328125 1.433594 -3.289062 1.367188 -3.242188 C 1.300781 -3.199219 1.226562 -3.15625 1.144531 -3.113281 C 1.0625 -3.066406 0.976562 -3.027344 0.886719 -2.988281 C 0.792969 -2.953125 0.707031 -2.921875 0.617188 -2.898438 L 0.617188 -3.351562 C 0.714844 -3.378906 0.820312 -3.414062 0.929688 -3.460938 C 1.039062 -3.507812 1.144531 -3.558594 1.253906 -3.613281 C 1.359375 -3.671875 1.457031 -3.730469 1.550781 -3.792969 C 1.644531 -3.855469 1.726562 -3.917969 1.796875 -3.976562 L 1.964844 -3.976562 Z "/>
</g>
<g id="glyph-0-6">
<path d="M 0.605469 0.0585938 C 0.523438 0.0585938 0.449219 0.03125 0.390625 -0.03125 C 0.332031 -0.0898438 0.304688 -0.160156 0.304688 -0.246094 C 0.304688 -0.328125 0.332031 -0.398438 0.390625 -0.460938 C 0.449219 -0.519531 0.523438 -0.550781 0.605469 -0.550781 C 0.691406 -0.550781 0.761719 -0.519531 0.820312 -0.460938 C 0.882812 -0.398438 0.910156 -0.328125 0.910156 -0.246094 C 0.910156 -0.160156 0.882812 -0.0898438 0.820312 -0.03125 C 0.761719 0.03125 0.691406 0.0585938 0.605469 0.0585938 Z "/>
</g>
</g>
</defs>
<g fill="rgb(100%, 100%, 0%)" fill-opacity="1">
<use xlink:href="#glyph-0-0" x="30" y="25.995117"/>
<use xlink:href="#glyph-0-1" x="33" y="25.995117"/>
<use xlink:href="#glyph-0-2" x="35" y="25.995117"/>
<use xlink:href="#glyph-0-3" x="38" y="25.995117"/>
<use xlink:href="#glyph-0-4" x="40" y="25.995117"/>
<use xlink:href="#glyph-0-3" x="44" y="25.995117"/>
<use xlink:href="#glyph-0-5" x="46" y="25.995117"/>
<use xlink:href="#glyph-0-6" x="49" y="25.995117"/>
<use xlink:href="#glyph-0-2" x="50" y="25.995117"/>
</g>
</svg>
