<?xml version="1.0" encoding="UTF-8"?>
<svg xmlns="http://www.w3.org/2000/svg" xmlns:xlink="http://www.w3.org/1999/xlink" width="854" height="480" viewBox="0 0 854 480">
<defs>
<g>
<g id="glyph-0-0">
<path d="M 2.453125 -1.960938 C 2.453125 -1.640625 2.417969 -1.355469 2.355469 -1.105469 C 2.292969 -0.855469 2.199219 -0.644531 2.078125 -0.46875 C 1.957031 -0.296875 1.804688 -0.164062 1.632812 -0.0742188 C 1.453125 0.015625 1.253906 0.0625 1.03125 0.0625 C 0.800781 0.0625 0.59375 0.0195312 0.421875 -0.0625 L 0.421875 -0.445312 C 0.613281 -0.335938 0.820312 -0.28125 1.039062 -0.28125 C 1.199219 -0.28125 1.339844 -0.3125 1.464844 -0.378906 C 1.589844 -0.445312 1.695312 -0.539062 1.78125 -0.664062 C 1.867188 -0.789062 1.933594 -0.941406 1.976562 -1.125 C 2.023438 -1.304688 2.046875 -1.515625 2.046875 -1.75 L 2.035156 -1.75 C 1.886719 -1.449219 1.625 -1.296875 1.253906 -1.296875 C 1.105469 -1.296875 0.96875 -1.324219 0.84375 -1.378906 C 0.71875 -1.429688 0.609375 -1.507812 0.515625 -1.601562 C 0.425781 -1.699219 0.355469 -1.816406 0.304688 -1.949219 C 0.253906 -2.082031 0.230469 -2.230469 0.230469 -2.390625 C 0.230469 -2.5625 0.257812 -2.71875 0.3125 -2.863281 C 0.371094 -3.007812 0.449219 -3.128906 0.546875 -3.234375 C 0.648438 -3.335938 0.765625 -3.417969 0.90625 -3.472656 C 1.042969 -3.53125 1.191406 -3.558594 1.355469 -3.558594 C 1.53125 -3.558594 1.6875 -3.523438 1.824219 -3.453125 C 1.957031 -3.382812 2.074219 -3.277344 2.164062 -3.144531 C 2.257812 -3.007812 2.328125 -2.839844 2.378906 -2.640625 C 2.425781 -2.441406 2.453125 -2.214844 2.453125 -1.960938 M 2.019531 -2.320312 C 2.019531 -2.453125 2 -2.578125 1.964844 -2.6875 C 1.929688 -2.796875 1.882812 -2.894531 1.820312 -2.972656 C 1.757812 -3.050781 1.6875 -3.113281 1.601562 -3.15625 C 1.515625 -3.199219 1.421875 -3.21875 1.320312 -3.21875 C 1.226562 -3.21875 1.136719 -3.199219 1.050781 -3.164062 C 0.96875 -3.125 0.898438 -3.070312 0.835938 -3 C 0.773438 -2.933594 0.726562 -2.851562 0.691406 -2.753906 C 0.65625 -2.660156 0.640625 -2.554688 0.640625 -2.445312 C 0.640625 -2.320312 0.65625 -2.210938 0.691406 -2.113281 C 0.722656 -2.015625 0.769531 -1.929688 0.832031 -1.863281 C 0.894531 -1.796875 0.96875 -1.746094 1.054688 -1.710938 C 1.144531 -1.671875 1.238281 -1.65625 1.34375 -1.65625 C 1.4375 -1.65625 1.527344 -1.671875 1.609375 -1.707031 C 1.691406 -1.742188 1.761719 -1.789062 1.824219 -1.847656 C 1.882812 -1.910156 1.929688 -1.980469 1.964844 -2.058594 C 2 -2.140625 2.019531 -2.226562 2.019531 -2.320312 Z "/>
</g>
<g id="glyph-0-1">
<path d="M 2.867188 -1.523438 L 2.5 -1.523438 L 1.6875 -3.035156 L 1.675781 -3.035156 L 0.921875 -1.523438 L 0.5625 -1.523438 L 1.59375 -3.558594 L 1.75 -3.558594 Z "/>
</g>
<g id="glyph-0-2">
<path d="M 2.328125 -0.992188 C 2.328125 -0.832031 2.296875 -0.691406 2.238281 -0.558594 C 2.179688 -0.429688 2.09375 -0.320312 1.984375 -0.226562 C 1.878906 -0.136719 1.75 -0.0664062 1.597656 -0.015625 C 1.445312 0.0351562 1.277344 0.0625 1.097656 0.0625 C 0.761719 0.0625 0.496094 -0.00390625 0.300781 -0.128906 L 0.300781 -0.558594 C 0.535156 -0.375 0.804688 -0.28125 1.109375 -0.28125 C 1.234375 -0.28125 1.34375 -0.296875 1.441406 -0.328125 C 1.539062 -0.359375 1.625 -0.402344 1.695312 -0.460938 C 1.765625 -0.519531 1.820312 -0.589844 1.859375 -0.671875 C 1.898438 -0.757812 1.917969 -0.851562 1.917969 -0.953125 C 1.917969 -1.410156 1.589844 -1.640625 0.941406 -1.640625 L 0.648438 -1.640625 L 0.648438 -1.980469 L 0.925781 -1.980469 C 1.5 -1.980469 1.789062 -2.195312 1.789062 -2.625 C 1.789062 -3.023438 1.570312 -3.21875 1.128906 -3.21875 C 0.882812 -3.21875 0.652344 -3.136719 0.433594 -2.972656 L 0.433594 -3.359375 C 0.65625 -3.492188 0.921875 -3.558594 1.230469 -3.558594 C 1.375 -3.558594 1.507812 -3.539062 1.628906 -3.5 C 1.746094 -3.457031 1.847656 -3.402344 1.933594 -3.328125 C 2.019531 -3.253906 2.082031 -3.167969 2.128906 -3.0625 C 2.175781 -2.960938 2.199219 -2.847656 2.199219 -2.726562 C 2.199219 -2.265625 1.96875 -1.96875 1.5 -1.835938 L 1.5 -1.828125 C 1.621094 -1.8125 1.730469 -1.785156 1.832031 -1.738281 C 1.933594 -1.695312 2.019531 -1.636719 2.09375 -1.566406 C 2.164062 -1.492188 2.222656 -1.410156 2.265625 -1.3125 C 2.304688 -1.214844 2.328125 -1.109375 2.328125 -0.992188 Z "/>
</g>
<g id="glyph-0-3">
</g>
<g id="glyph-0-4">
<path d="M 2.859375 -1.816406 L 0.566406 -1.816406 L 0.566406 -2.140625 L 2.859375 -2.140625 L 2.859375 -1.816406 M 2.859375 -0.777344 L 0.566406 -0.777344 L 0.566406 -1.097656 L 2.859375 -1.097656 Z "/>
</g>
<g id="glyph-0-5">
<path d="M 2.464844 -3.269531 C 2.414062 -3.175781 2.347656 -3.0625 2.273438 -2.921875 C 2.195312 -2.785156 2.117188 -2.628906 2.03125 -2.457031 C 1.945312 -2.285156 1.859375 -2.097656 1.773438 -1.898438 C 1.683594 -1.699219 1.601562 -1.496094 1.527344 -1.285156 C 1.449219 -1.074219 1.382812 -0.859375 1.324219 -0.640625 C 1.265625 -0.421875 1.226562 -0.210938 1.199219 0 L 0.769531 0 C 0.796875 -0.207031 0.84375 -0.421875 0.90625 -0.636719 C 0.964844 -0.855469 1.035156 -1.070312 1.113281 -1.277344 C 1.1875 -1.488281 1.269531 -1.6875 1.359375 -1.882812 C 1.445312 -2.074219 1.527344 -2.253906 1.609375 -2.417969 C 1.691406 -2.578125 1.765625 -2.722656 1.832031 -2.847656 C 1.898438 -2.972656 1.953125 -3.070312 1.996094 -3.140625 L 0.238281 -3.140625 L 0.238281 -3.5 L 2.464844 -3.5 Z "/>
</g>
<g id="glyph-0-6">
<path d="M 1.882812 -2.582031 C 1.882812 -2.691406 1.867188 -2.785156 1.835938 -2.863281 C 1.800781 -2.945312 1.753906 -3.011719 1.699219 -3.0625 C 1.640625 -3.117188 1.570312 -3.15625 1.492188 -3.179688 C 1.414062 -3.207031 1.332031 -3.21875 1.242188 -3.21875 C 1.164062 -3.21875 1.085938 -3.210938 1.011719 -3.1875 C 0.9375 -3.167969 0.863281 -3.136719 0.792969 -3.101562 C 0.722656 -3.0625 0.652344 -3.019531 0.585938 -2.964844 C 0.519531 -2.914062 0.460938 -2.855469 0.402344 -2.792969 L 0.402344 -3.222656 C 0.515625 -3.332031 0.640625 -3.414062 0.78125 -3.472656 C 0.917969 -3.53125 1.089844 -3.558594 1.289062 -3.558594 C 1.433594 -3.558594 1.566406 -3.539062 1.6875 -3.496094 C 1.808594 -3.457031 1.914062 -3.394531 2.003906 -3.316406 C 2.09375 -3.234375 2.164062 -3.136719 2.214844 -3.019531 C 2.265625 -2.902344 2.292969 -2.769531 2.292969 -2.617188 C 2.292969 -2.480469 2.277344 -2.351562 2.246094 -2.242188 C 2.214844 -2.128906 2.164062 -2.023438 2.101562 -1.921875 C 2.035156 -1.824219 1.957031 -1.730469 1.859375 -1.636719 C 1.761719 -1.546875 1.644531 -1.453125 1.515625 -1.359375 C 1.347656 -1.242188 1.214844 -1.140625 1.105469 -1.058594 C 1 -0.976562 0.914062 -0.898438 0.851562 -0.828125 C 0.789062 -0.753906 0.746094 -0.679688 0.722656 -0.609375 C 0.695312 -0.535156 0.683594 -0.453125 0.683594 -0.359375 L 2.425781 -0.359375 L 2.425781 0 L 0.265625 0 L 0.265625 -0.171875 C 0.265625 -0.324219 0.28125 -0.453125 0.316406 -0.570312 C 0.347656 -0.683594 0.402344 -0.789062 0.476562 -0.894531 C 0.550781 -0.996094 0.648438 -1.097656 0.769531 -1.203125 C 0.890625 -1.304688 1.039062 -1.417969 1.214844 -1.546875 C 1.34375 -1.640625 1.449219 -1.726562 1.535156 -1.808594 C 1.621094 -1.890625 1.6875 -1.976562 1.742188 -2.058594 C 1.792969 -2.140625 1.828125 -2.226562 1.851562 -2.3125 C 1.875 -2.394531 1.882812 -2.488281 1.882812 -2.582031 Z "/>
</g>
</g>
</defs>
<g fill="rgb(100%, 100%, 0%)" fill-opacity="1">
<use xlink:href="#glyph-0-0" x="30" y="25.395508"/>
<use xlink:href="#glyph-0-1" x="33" y="25.395508"/>
<use xlink:href="#glyph-0-2" x="36" y="25.395508"/>
<use xlink:href="#glyph-0-3" x="39" y="25.395508"/>
<use xlink:href="#glyph-0-4" x="40" y="25.395508"/>
<use xlink:href="#glyph-0-3" x="43" y="25.395508"/>
<use xlink:href="#glyph-0-5" x="44" y="25.395508"/>
<use xlink:href="#glyph-0-6" x="47" y="25.395508"/>
<use xlink:href="#glyph-0-0" x="50" y="25.395508"/>
</g>
</svg>
