<?xml version="1.0" encoding="UTF-8"?>
<svg xmlns="http://www.w3.org/2000/svg" xmlns:xlink="http://www.w3.org/1999/xlink" width="854" height="480" viewBox="0 0 854 480">
<defs>
<g>
<g id="glyph-0-0">
<path d="M 2.34375 -0.128906 C 2.128906 0 1.878906 0.0664062 1.585938 0.0664062 C 1.1875 0.0664062 0.867188 -0.0625 0.625 -0.320312 C 0.382812 -0.578125 0.261719 -0.914062 0.261719 -1.324219 C 0.261719 -1.78125 0.390625 -2.148438 0.652344 -2.425781 C 0.917969 -2.703125 1.265625 -2.84375 1.703125 -2.84375 C 1.949219 -2.84375 2.164062 -2.796875 2.347656 -2.707031 L 2.347656 -2.25 C 2.144531 -2.394531 1.921875 -2.46875 1.6875 -2.46875 C 1.402344 -2.46875 1.171875 -2.367188 0.988281 -2.164062 C 0.808594 -1.960938 0.714844 -1.691406 0.714844 -1.363281 C 0.714844 -1.035156 0.800781 -0.78125 0.972656 -0.589844 C 1.144531 -0.402344 1.371094 -0.308594 1.660156 -0.308594 C 1.902344 -0.308594 2.128906 -0.390625 2.34375 -0.550781 Z "/>
</g>
<g id="glyph-0-1">
<path d="M 2.304688 0.804688 L 0 0.804688 L 0 0.484375 L 2.304688 0.484375 Z "/>
</g>
<g id="glyph-0-2">
<path d="M 2.09375 -2.871094 C 2.09375 -2.988281 2.074219 -3.09375 2.039062 -3.183594 C 2 -3.269531 1.949219 -3.34375 1.886719 -3.402344 C 1.824219 -3.460938 1.746094 -3.507812 1.660156 -3.535156 C 1.574219 -3.5625 1.480469 -3.578125 1.378906 -3.578125 C 1.292969 -3.578125 1.207031 -3.566406 1.125 -3.542969 C 1.039062 -3.519531 0.960938 -3.488281 0.878906 -3.445312 C 0.800781 -3.402344 0.726562 -3.355469 0.652344 -3.296875 C 0.578125 -3.238281 0.511719 -3.175781 0.449219 -3.105469 L 0.449219 -3.582031 C 0.574219 -3.703125 0.710938 -3.792969 0.867188 -3.859375 C 1.019531 -3.921875 1.210938 -3.957031 1.433594 -3.957031 C 1.589844 -3.957031 1.738281 -3.933594 1.875 -3.886719 C 2.011719 -3.839844 2.128906 -3.773438 2.226562 -3.683594 C 2.328125 -3.59375 2.40625 -3.484375 2.460938 -3.355469 C 2.519531 -3.226562 2.546875 -3.078125 2.546875 -2.910156 C 2.546875 -2.753906 2.53125 -2.613281 2.496094 -2.492188 C 2.460938 -2.367188 2.40625 -2.25 2.335938 -2.136719 C 2.261719 -2.027344 2.171875 -1.921875 2.066406 -1.820312 C 1.957031 -1.71875 1.828125 -1.617188 1.683594 -1.511719 C 1.5 -1.378906 1.347656 -1.269531 1.230469 -1.175781 C 1.113281 -1.085938 1.019531 -1 0.949219 -0.917969 C 0.878906 -0.835938 0.828125 -0.757812 0.800781 -0.675781 C 0.773438 -0.597656 0.757812 -0.503906 0.757812 -0.398438 L 2.695312 -0.398438 L 2.695312 0 L 0.296875 0 L 0.296875 -0.191406 C 0.296875 -0.359375 0.3125 -0.503906 0.351562 -0.632812 C 0.386719 -0.757812 0.445312 -0.878906 0.527344 -0.992188 C 0.613281 -1.105469 0.722656 -1.222656 0.855469 -1.335938 C 0.992188 -1.449219 1.15625 -1.578125 1.351562 -1.71875 C 1.492188 -1.820312 1.609375 -1.917969 1.703125 -2.011719 C 1.800781 -2.101562 1.875 -2.195312 1.933594 -2.285156 C 1.992188 -2.378906 2.035156 -2.472656 2.058594 -2.566406 C 2.082031 -2.664062 2.09375 -2.761719 2.09375 -2.871094 Z "/>
</g>
<g id="glyph-0-3">
</g>
<g id="glyph-0-4">
<path d="M 3.179688 -2.019531 L 0.628906 -2.019531 L 0.628906 -2.375 L 3.179688 -2.375 L 3.179688 -2.019531 M 3.179688 -0.863281 L 0.628906 -0.863281 L 0.628906 -1.222656 L 3.179688 -1.222656 Z "/>
</g>
<g id="glyph-0-5">
<path d="M 1.964844 0 L 1.519531 0 L 1.519531 -3.359375 C 1.484375 -3.328125 1.433594 -3.289062 1.367188 -3.242188 C 1.300781 -3.199219 1.226562 -3.15625 1.144531 -3.113281 C 1.0625 -3.066406 0.976562 -3.027344 0.886719 -2.988281 C 0.792969 -2.953125 0.707031 -2.921875 0.617188 -2.898438 L 0.617188 -3.351562 C 0.714844 -3.378906 0.820312 -3.414062 0.929688 -3.460938 C 1.039062 -3.507812 1.144531 -3.558594 1.253906 -3.613281 C 1.359375 -3.671875 1.457031 -3.730469 1.550781 -3.792969 C 1.644531 -3.855469 1.726562 -3.917969 1.796875 -3.976562 L 1.964844 -3.976562 Z "/>
</g>
<g id="glyph-0-6">
<path d="M 0.605469 0.0585938 C 0.523438 0.0585938 0.449219 0.03125 0.390625 -0.03125 C 0.332031 -0.0898438 0.304688 -0.160156 0.304688 -0.246094 C 0.304688 -0.328125 0.332031 -0.398438 0.390625 -0.460938 C 0.449219 -0.519531 0.523438 -0.550781 0.605469 -0.550781 C 0.691406 -0.550781 0.761719 -0.519531 0.820312 -0.460938 C 0.882812 -0.398438 0.910156 -0.328125 0.910156 -0.246094 C 0.910156 -0.160156 0.882812 -0.0898438 0.820312 -0.03125 C 0.761719 0.03125 0.691406 0.0585938 0.605469 0.0585938 Z "/>
</g>
<g id="glyph-0-7">
<path d="M 2.304688 -3.890625 L 2.304688 -1.320312 L 2.804688 -1.320312 L 2.804688 -0.914062 L 2.304688 -0.914062 L 2.304688 0 L 1.867188 0 L 1.867188 -0.914062 L 0.0390625 -0.914062 L 0.0390625 -1.300781 C 0.207031 -1.492188 0.378906 -1.695312 0.554688 -1.914062 C 0.726562 -2.132812 0.894531 -2.351562 1.050781 -2.578125 C 1.210938 -2.800781 1.355469 -3.023438 1.492188 -3.25 C 1.625 -3.472656 1.738281 -3.6875 1.832031 -3.890625 L 2.304688 -3.890625 M 0.539062 -1.320312 L 1.867188 -1.320312 L 1.867188 -3.226562 C 1.730469 -2.988281 1.601562 -2.777344 1.480469 -2.589844 C 1.359375 -2.40625 1.246094 -2.234375 1.136719 -2.082031 C 1.027344 -1.929688 0.921875 -1.792969 0.820312 -1.671875 C 0.722656 -1.546875 0.628906 -1.429688 0.539062 -1.320312 Z "/>
</g>
<g id="glyph-0-8">
<path d="M 0.246094 -1.085938 C 0.246094 -1.1875 0.261719 -1.292969 0.292969 -1.394531 C 0.324219 -1.5 0.371094 -1.597656 0.433594 -1.6875 C 0.492188 -1.777344 0.566406 -1.859375 0.65625 -1.933594 C 0.746094 -2.007812 0.847656 -2.066406 0.964844 -2.109375 C 0.792969 -2.203125 0.660156 -2.324219 0.5625 -2.472656 C 0.460938 -2.621094 0.414062 -2.785156 0.414062 -2.960938 C 0.414062 -3.105469 0.441406 -3.238281 0.496094 -3.359375 C 0.550781 -3.480469 0.625 -3.585938 0.722656 -3.671875 C 0.820312 -3.761719 0.9375 -3.832031 1.070312 -3.878906 C 1.207031 -3.929688 1.351562 -3.957031 1.503906 -3.957031 C 1.664062 -3.957031 1.808594 -3.929688 1.941406 -3.878906 C 2.078125 -3.828125 2.191406 -3.757812 2.289062 -3.671875 C 2.386719 -3.582031 2.464844 -3.476562 2.515625 -3.355469 C 2.570312 -3.234375 2.597656 -3.105469 2.597656 -2.960938 C 2.597656 -2.785156 2.550781 -2.621094 2.449219 -2.472656 C 2.351562 -2.324219 2.21875 -2.203125 2.054688 -2.109375 C 2.164062 -2.066406 2.265625 -2.007812 2.355469 -1.933594 C 2.445312 -1.859375 2.519531 -1.777344 2.578125 -1.6875 C 2.640625 -1.597656 2.6875 -1.5 2.71875 -1.394531 C 2.75 -1.292969 2.765625 -1.1875 2.765625 -1.085938 C 2.765625 -0.914062 2.738281 -0.757812 2.675781 -0.617188 C 2.613281 -0.476562 2.527344 -0.355469 2.414062 -0.257812 C 2.304688 -0.15625 2.171875 -0.078125 2.015625 -0.0234375 C 1.863281 0.0351562 1.691406 0.0625 1.503906 0.0625 C 1.320312 0.0625 1.152344 0.0351562 1 -0.0234375 C 0.84375 -0.078125 0.710938 -0.15625 0.597656 -0.257812 C 0.488281 -0.355469 0.398438 -0.476562 0.335938 -0.617188 C 0.273438 -0.757812 0.246094 -0.914062 0.246094 -1.085938 M 0.726562 -1.125 C 0.726562 -1.003906 0.746094 -0.890625 0.78125 -0.792969 C 0.820312 -0.695312 0.871094 -0.613281 0.941406 -0.546875 C 1.007812 -0.476562 1.089844 -0.421875 1.1875 -0.386719 C 1.285156 -0.347656 1.390625 -0.332031 1.507812 -0.332031 C 1.621094 -0.332031 1.726562 -0.351562 1.824219 -0.386719 C 1.917969 -0.425781 2 -0.480469 2.070312 -0.546875 C 2.140625 -0.617188 2.195312 -0.699219 2.234375 -0.796875 C 2.273438 -0.894531 2.292969 -1.003906 2.292969 -1.125 C 2.292969 -1.230469 2.273438 -1.332031 2.238281 -1.429688 C 2.199219 -1.523438 2.148438 -1.605469 2.078125 -1.679688 C 2.007812 -1.75 1.925781 -1.808594 1.832031 -1.851562 C 1.734375 -1.890625 1.628906 -1.914062 1.507812 -1.914062 C 1.394531 -1.914062 1.292969 -1.894531 1.199219 -1.855469 C 1.101562 -1.816406 1.019531 -1.761719 0.949219 -1.691406 C 0.882812 -1.621094 0.828125 -1.539062 0.785156 -1.441406 C 0.746094 -1.34375 0.726562 -1.238281 0.726562 -1.125 M 0.867188 -2.925781 C 0.867188 -2.835938 0.882812 -2.75 0.914062 -2.671875 C 0.949219 -2.59375 0.996094 -2.523438 1.054688 -2.464844 C 1.113281 -2.40625 1.179688 -2.359375 1.257812 -2.328125 C 1.335938 -2.292969 1.417969 -2.277344 1.507812 -2.277344 C 1.597656 -2.277344 1.679688 -2.292969 1.757812 -2.328125 C 1.839844 -2.363281 1.90625 -2.410156 1.964844 -2.46875 C 2.023438 -2.527344 2.066406 -2.59375 2.101562 -2.671875 C 2.136719 -2.753906 2.152344 -2.835938 2.152344 -2.925781 C 2.152344 -3.019531 2.136719 -3.109375 2.105469 -3.1875 C 2.070312 -3.265625 2.023438 -3.335938 1.96875 -3.394531 C 1.910156 -3.453125 1.839844 -3.496094 1.761719 -3.53125 C 1.683594 -3.5625 1.597656 -3.582031 1.507812 -3.582031 C 1.414062 -3.582031 1.324219 -3.5625 1.246094 -3.53125 C 1.167969 -3.496094 1.101562 -3.449219 1.042969 -3.390625 C 0.984375 -3.332031 0.941406 -3.261719 0.910156 -3.183594 C 0.878906 -3.101562 0.867188 -3.019531 0.867188 -2.925781 Z "/>
</g>
<g id="glyph-0-9">
<path d="M 2.628906 -1.1875 C 2.628906 -1 2.597656 -0.828125 2.53125 -0.671875 C 2.464844 -0.519531 2.375 -0.386719 2.253906 -0.277344 C 2.132812 -0.167969 1.988281 -0.0820312 1.816406 -0.0234375 C 1.648438 0.0390625 1.457031 0.0664062 1.25 0.0664062 C 0.890625 0.0664062 0.621094 0.0117188 0.445312 -0.09375 L 0.445312 -0.566406 C 0.707031 -0.398438 0.980469 -0.3125 1.257812 -0.3125 C 1.398438 -0.3125 1.523438 -0.332031 1.636719 -0.375 C 1.75 -0.414062 1.847656 -0.472656 1.925781 -0.546875 C 2.003906 -0.621094 2.066406 -0.710938 2.109375 -0.816406 C 2.152344 -0.921875 2.171875 -1.035156 2.171875 -1.160156 C 2.171875 -1.414062 2.089844 -1.613281 1.917969 -1.757812 C 1.746094 -1.898438 1.5 -1.972656 1.175781 -1.972656 C 1.125 -1.972656 1.070312 -1.972656 1.011719 -1.96875 C 0.953125 -1.96875 0.894531 -1.964844 0.839844 -1.960938 C 0.78125 -1.960938 0.722656 -1.957031 0.667969 -1.953125 C 0.613281 -1.949219 0.5625 -1.945312 0.519531 -1.941406 L 0.652344 -3.890625 L 2.449219 -3.890625 L 2.449219 -3.488281 L 1.035156 -3.488281 L 0.957031 -2.347656 C 1.015625 -2.351562 1.078125 -2.351562 1.140625 -2.355469 C 1.207031 -2.359375 1.265625 -2.359375 1.316406 -2.359375 C 1.523438 -2.359375 1.707031 -2.332031 1.871094 -2.277344 C 2.03125 -2.222656 2.167969 -2.148438 2.28125 -2.046875 C 2.394531 -1.945312 2.480469 -1.824219 2.539062 -1.679688 C 2.597656 -1.53125 2.628906 -1.367188 2.628906 -1.1875 Z "/>
</g>
<g id="glyph-0-10">
<path d="M 2.738281 -3.632812 C 2.679688 -3.53125 2.609375 -3.402344 2.523438 -3.246094 C 2.441406 -3.09375 2.351562 -2.921875 2.257812 -2.730469 C 2.164062 -2.539062 2.066406 -2.332031 1.96875 -2.109375 C 1.871094 -1.890625 1.78125 -1.660156 1.695312 -1.425781 C 1.609375 -1.191406 1.535156 -0.953125 1.472656 -0.710938 C 1.40625 -0.46875 1.359375 -0.234375 1.332031 0 L 0.855469 0 C 0.886719 -0.230469 0.9375 -0.46875 1.003906 -0.710938 C 1.074219 -0.949219 1.148438 -1.1875 1.234375 -1.421875 C 1.320312 -1.652344 1.414062 -1.875 1.507812 -2.089844 C 1.605469 -2.308594 1.699219 -2.503906 1.789062 -2.6875 C 1.878906 -2.867188 1.960938 -3.027344 2.035156 -3.164062 C 2.109375 -3.304688 2.171875 -3.410156 2.214844 -3.488281 L 0.265625 -3.488281 L 0.265625 -3.890625 L 2.738281 -3.890625 Z "/>
</g>
</g>
</defs>
<g fill="rgb(100%, 100%, 0%)" fill-opacity="1">
<use xlink:href="#glyph-0-0" x="30" y="25.995117"/>
<use xlink:href="#glyph-0-1" x="33" y="25.995117"/>
<use xlink:href="#glyph-0-2" x="35" y="25.995117"/>
<use xlink:href="#glyph-0-3" x="38" y="25.995117"/>
<use xlink:href="#glyph-0-4" x="40" y="25.995117"/>
<use xlink:href="#glyph-0-3" x="44" y="25.995117"/>
<use xlink:href="#glyph-0-5" x="46" y="25.995117"/>
<use xlink:href="#glyph-0-6" x="49" y="25.995117"/>
<use xlink:href="#glyph-0-7" x="50" y="25.995117"/>
<use xlink:href="#glyph-0-2" x="53" y="25.995117"/>
<use xlink:href="#glyph-0-8" x="56" y="25.995117"/>
<use xlink:href="#glyph-0-9" x="59" y="25.995117"/>
<use xlink:href="#glyph-0-10" x="62" y="25.995117"/>
</g>
</svg>
