<?xml version="1.0" encoding="UTF-8"?>
<svg xmlns="http://www.w3.org/2000/svg" xmlns:xlink="http://www.w3.org/1999/xlink" width="854" height="480" viewBox="0 0 854 480">
<defs>
<g>
<g id="glyph-0-0">
<path d="M 3.5625 -4.722656 C 3.484375 -4.589844 3.390625 -4.421875 3.28125 -4.222656 C 3.171875 -4.023438 3.054688 -3.796875 2.933594 -3.546875 C 2.8125 -3.296875 2.6875 -3.03125 2.558594 -2.742188 C 2.433594 -2.457031 2.316406 -2.160156 2.203125 -1.855469 C 2.09375 -1.550781 1.996094 -1.238281 1.914062 -0.925781 C 1.828125 -0.613281 1.769531 -0.304688 1.730469 0 L 1.109375 0 C 1.152344 -0.300781 1.21875 -0.609375 1.304688 -0.921875 C 1.394531 -1.234375 1.496094 -1.542969 1.605469 -1.847656 C 1.71875 -2.148438 1.835938 -2.4375 1.960938 -2.71875 C 2.085938 -3 2.207031 -3.257812 2.324219 -3.492188 C 2.441406 -3.726562 2.550781 -3.933594 2.648438 -4.113281 C 2.746094 -4.292969 2.824219 -4.433594 2.882812 -4.535156 L 0.34375 -4.535156 L 0.34375 -5.058594 L 3.5625 -5.058594 Z "/>
</g>
<g id="glyph-0-1">
</g>
<g id="glyph-0-2">
<path d="M 4.132812 -2.625 L 0.816406 -2.625 L 0.816406 -3.089844 L 4.132812 -3.089844 L 4.132812 -2.625 M 4.132812 -1.121094 L 0.816406 -1.121094 L 0.816406 -1.585938 L 4.132812 -1.585938 Z "/>
</g>
<g id="glyph-0-3">
<path d="M 2.996094 -5.058594 L 2.996094 -1.71875 L 3.648438 -1.71875 L 3.648438 -1.1875 L 2.996094 -1.1875 L 2.996094 0 L 2.425781 0 L 2.425781 -1.1875 L 0.0507812 -1.1875 L 0.0507812 -1.6875 C 0.269531 -1.9375 0.492188 -2.203125 0.71875 -2.488281 C 0.945312 -2.769531 1.160156 -3.058594 1.367188 -3.351562 C 1.574219 -3.640625 1.761719 -3.933594 1.9375 -4.222656 C 2.113281 -4.511719 2.261719 -4.792969 2.378906 -5.058594 L 2.996094 -5.058594 M 0.703125 -1.71875 L 2.425781 -1.71875 L 2.425781 -4.191406 C 2.25 -3.886719 2.082031 -3.609375 1.925781 -3.367188 C 1.769531 -3.125 1.617188 -2.90625 1.476562 -2.707031 C 1.332031 -2.511719 1.199219 -2.332031 1.070312 -2.171875 C 0.9375 -2.011719 0.816406 -1.859375 0.703125 -1.71875 Z "/>
</g>
<g id="glyph-0-4">
<path d="M 4.132812 -1.871094 L 2.707031 -1.871094 L 2.707031 -0.449219 L 2.238281 -0.449219 L 2.238281 -1.871094 L 0.816406 -1.871094 L 0.816406 -2.339844 L 2.238281 -2.339844 L 2.238281 -3.761719 L 2.707031 -3.761719 L 2.707031 -2.339844 L 4.132812 -2.339844 Z "/>
</g>
<g id="glyph-0-5">
<path d="M 3.359375 -1.433594 C 3.359375 -1.203125 3.316406 -0.996094 3.230469 -0.808594 C 3.144531 -0.621094 3.023438 -0.460938 2.867188 -0.328125 C 2.710938 -0.195312 2.523438 -0.09375 2.304688 -0.0195312 C 2.085938 0.0507812 1.847656 0.0898438 1.582031 0.0898438 C 1.101562 0.0898438 0.71875 -0.00390625 0.433594 -0.1875 L 0.433594 -0.808594 C 0.773438 -0.539062 1.164062 -0.40625 1.605469 -0.40625 C 1.78125 -0.40625 1.941406 -0.429688 2.082031 -0.472656 C 2.226562 -0.515625 2.347656 -0.582031 2.449219 -0.667969 C 2.550781 -0.75 2.628906 -0.851562 2.6875 -0.972656 C 2.742188 -1.09375 2.769531 -1.226562 2.769531 -1.378906 C 2.769531 -2.039062 2.296875 -2.371094 1.359375 -2.371094 L 0.9375 -2.371094 L 0.9375 -2.859375 L 1.335938 -2.859375 C 2.167969 -2.859375 2.585938 -3.171875 2.585938 -3.792969 C 2.585938 -4.363281 2.269531 -4.652344 1.632812 -4.652344 C 1.277344 -4.652344 0.941406 -4.53125 0.628906 -4.292969 L 0.628906 -4.851562 C 0.949219 -5.046875 1.332031 -5.140625 1.777344 -5.140625 C 1.988281 -5.140625 2.179688 -5.113281 2.351562 -5.054688 C 2.523438 -4.996094 2.671875 -4.914062 2.792969 -4.808594 C 2.914062 -4.699219 3.011719 -4.574219 3.078125 -4.425781 C 3.144531 -4.277344 3.175781 -4.113281 3.175781 -3.9375 C 3.175781 -3.269531 2.839844 -2.84375 2.167969 -2.652344 L 2.167969 -2.636719 C 2.339844 -2.621094 2.5 -2.578125 2.644531 -2.511719 C 2.789062 -2.449219 2.917969 -2.363281 3.023438 -2.261719 C 3.128906 -2.15625 3.210938 -2.035156 3.269531 -1.894531 C 3.332031 -1.753906 3.359375 -1.601562 3.359375 -1.433594 Z "/>
</g>
</g>
</defs>
<g fill="rgb(100%, 100%, 0%)" fill-opacity="1">
<use xlink:href="#glyph-0-0" x="30" y="27.793945"/>
<use xlink:href="#glyph-0-1" x="34" y="27.793945"/>
<use xlink:href="#glyph-0-2" x="36" y="27.793945"/>
<use xlink:href="#glyph-0-1" x="41" y="27.793945"/>
<use xlink:href="#glyph-0-3" x="43" y="27.793945"/>
<use xlink:href="#glyph-0-1" x="47" y="27.793945"/>
<use xlink:href="#glyph-0-4" x="49" y="27.793945"/>
<use xlink:href="#glyph-0-1" x="54" y="27.793945"/>
<use xlink:href="#glyph-0-5" x="56" y="27.793945"/>
</g>
</svg>
